<svg id="Layer_1" data-name="Layer 1" xmlns="http://www.w3.org/2000/svg" viewBox="0 0 284.87 101.28"><defs><style>.cls-1{fill:#4e2f8c;}</style></defs><title>logo</title><path class="cls-1" d="M96.31,29.14H92.49V27.63h10.15v1.51H98.82V43.39H96.31V29.14Z"/><path class="cls-1" d="M104,27.63h2.31V35.1h0q0.14-.3.41-0.78a4.46,4.46,0,0,1,.73-0.94,4.26,4.26,0,0,1,1.12-.79,3.44,3.44,0,0,1,1.55-.33,2.62,2.62,0,0,1,1.25.27,2.5,2.5,0,0,1,.84.72,3.1,3.1,0,0,1,.49,1,4.35,4.35,0,0,1,.16,1.17v8h-2.31V36.58q0-.53,0-1a2.82,2.82,0,0,0-.19-0.82,1.4,1.4,0,0,0-.42-0.57,1.11,1.11,0,0,0-.71-0.22,1.91,1.91,0,0,0-1.42.58,4.34,4.34,0,0,0-.9,1.37,7.21,7.21,0,0,0-.47,1.62,8.73,8.73,0,0,0-.14,1.34v4.5H104V27.63Z"/><path class="cls-1" d="M123.77,43a9.2,9.2,0,0,1-1.44.46,8,8,0,0,1-1.74.16,6.44,6.44,0,0,1-2.11-.34,4.44,4.44,0,0,1-1.74-1.1,5.23,5.23,0,0,1-1.17-1.92,8.29,8.29,0,0,1-.42-2.81,8.51,8.51,0,0,1,.24-2.09,4.35,4.35,0,0,1,.79-1.65,3.64,3.64,0,0,1,1.44-1.08,5.42,5.42,0,0,1,2.17-.39,4.86,4.86,0,0,1,2.14.4,3.33,3.33,0,0,1,1.27,1,3.69,3.69,0,0,1,.62,1.43,8,8,0,0,1,.16,1.59h-6.51a8.89,8.89,0,0,0,.21,1.79,6.59,6.59,0,0,0,.68,1.86,4.48,4.48,0,0,0,1.29,1.46,3.37,3.37,0,0,0,2,.59,4.86,4.86,0,0,0,2.08-.46V43Zm-2.06-7.36a4.69,4.69,0,0,0-.07-0.74,2.35,2.35,0,0,0-.29-0.8,1.92,1.92,0,0,0-.62-0.64,2.16,2.16,0,0,0-2.12,0,2.16,2.16,0,0,0-.65.7,2.89,2.89,0,0,0-.32.81,5.78,5.78,0,0,0-.11.64h4.18Z"/><path class="cls-1" d="M132.25,27.63h3.59a17.31,17.31,0,0,1,2,.11,5.34,5.34,0,0,1,1.79.51,3.36,3.36,0,0,1,1.3,1.14,3.52,3.52,0,0,1,.5,2,3.72,3.72,0,0,1-.26,1.46,3.41,3.41,0,0,1-1.55,1.73,5.21,5.21,0,0,1-.95.4v0a6.14,6.14,0,0,1,1.25.38,3.8,3.8,0,0,1,1.13.73,3.6,3.6,0,0,1,.82,1.19,4.3,4.3,0,0,1,.32,1.75,3.69,3.69,0,0,1-2.35,3.78,6.57,6.57,0,0,1-2.08.47q-1.1.07-1.9,0.07h-3.59V27.63Zm2.51,6.7h1.07a5.69,5.69,0,0,0,1.25-.13,2.51,2.51,0,0,0,1-.43,1.94,1.94,0,0,0,.63-0.85,3.59,3.59,0,0,0,.22-1.34,3.08,3.08,0,0,0-.22-1.26,1.71,1.71,0,0,0-.62-0.74,2.46,2.46,0,0,0-1-.35,8,8,0,0,0-1.26-.09h-1.07v5.19Zm0,7.56h1.07q0.64,0,1.31-.06a3.17,3.17,0,0,0,1.23-.35,2.31,2.31,0,0,0,.91-0.9,3.39,3.39,0,0,0,.35-1.7,3.31,3.31,0,0,0-.31-1.53,2.34,2.34,0,0,0-.83-0.93,3.41,3.41,0,0,0-1.22-.46,8.19,8.19,0,0,0-1.45-.13h-1.07v6.06Z"/><path class="cls-1" d="M144.54,32.52h2.31v2.76h0q0.27-.55.58-1.06a5,5,0,0,1,.71-0.93,3.37,3.37,0,0,1,2.23-1v2.4a6.26,6.26,0,0,0-1.49.21,2.76,2.76,0,0,0-1.13.61,2.61,2.61,0,0,0-.71,1.13,5.71,5.71,0,0,0-.24,1.81v5h-2.31V32.52Z"/><path class="cls-1" d="M152.27,27.63h2.49v2.29h-2.49V27.63Zm0.09,4.89h2.31V43.39h-2.31V32.52Z"/><path class="cls-1" d="M163.55,43.49a4.35,4.35,0,0,1-.78.13c-0.29,0-.56,0-0.82,0a4.57,4.57,0,0,1-2.52-.59,2.4,2.4,0,0,1-.9-2.17V33.7h-1.74V32.52h1.74V30l2.31-1.39v4h3V33.7h-3V40a10.1,10.1,0,0,0,0,1,1.82,1.82,0,0,0,.22.74,1.06,1.06,0,0,0,.5.45,2.18,2.18,0,0,0,.88.15,4.38,4.38,0,0,0,.55,0,1.79,1.79,0,0,0,.53-0.15v1.33Z"/><path class="cls-1" d="M165.52,27.63H168v2.29h-2.49V27.63Zm0.09,4.89h2.31V43.39h-2.31V32.52Z"/><path class="cls-1" d="M176.56,34.66a14.47,14.47,0,0,0-1.26-.73,3.18,3.18,0,0,0-1.48-.34,2.25,2.25,0,0,0-1.05.26,0.92,0.92,0,0,0-.5.88,1.2,1.2,0,0,0,.37.86,4.42,4.42,0,0,0,.93.71l1.2,0.69a8.18,8.18,0,0,1,1.2.81,4,4,0,0,1,.92,1.07,2.86,2.86,0,0,1,.37,1.49,3.27,3.27,0,0,1-.32,1.5,2.82,2.82,0,0,1-.88,1,3.75,3.75,0,0,1-1.31.58,6.88,6.88,0,0,1-1.62.18,7.79,7.79,0,0,1-1.77-.17q-0.72-.17-1.13-0.31V41a12.42,12.42,0,0,0,1.28.74,3.74,3.74,0,0,0,1.74.4,2,2,0,0,0,1.44-.42,1.29,1.29,0,0,0,.44-0.95,1.2,1.2,0,0,0-.37-0.86,4.86,4.86,0,0,0-.91-0.72q-0.55-.34-1.18-0.69a7.67,7.67,0,0,1-1.18-.79,4.21,4.21,0,0,1-.91-1,2.45,2.45,0,0,1-.37-1.35,3.32,3.32,0,0,1,.22-1.19,2.62,2.62,0,0,1,.68-1,3.45,3.45,0,0,1,1.18-.69,5.13,5.13,0,0,1,1.75-.26,6.57,6.57,0,0,1,1.57.17l1,0.26v2Z"/><path class="cls-1" d="M179.12,27.63h2.31V35.1h0c0.09-.2.23-0.46,0.41-0.78a4.45,4.45,0,0,1,.73-0.94,4.26,4.26,0,0,1,1.12-.79,3.45,3.45,0,0,1,1.55-.33,2.62,2.62,0,0,1,1.25.27,2.5,2.5,0,0,1,.84.72,3.1,3.1,0,0,1,.49,1,4.35,4.35,0,0,1,.16,1.17v8h-2.31V36.58c0-.35,0-0.68,0-1a2.85,2.85,0,0,0-.2-0.82,1.39,1.39,0,0,0-.42-0.57,1.11,1.11,0,0,0-.71-0.22,1.91,1.91,0,0,0-1.42.58,4.34,4.34,0,0,0-.9,1.37,7.21,7.21,0,0,0-.47,1.62,8.62,8.62,0,0,0-.14,1.34v4.5h-2.31V27.63Z"/><path class="cls-1" d="M94.3,53.75h3.24a17.22,17.22,0,0,1,2.42.16,5.35,5.35,0,0,1,1.93.63,3.38,3.38,0,0,1,1.28,1.31,4.61,4.61,0,0,1,.47,2.24,4.39,4.39,0,0,1-.62,2.5,3.82,3.82,0,0,1-1.54,1.34,6,6,0,0,1-2,.54q-1.06.1-2,.1H96.81v6.95H94.3V53.75Zm2.51,7.31h0.73A11.19,11.19,0,0,0,98.9,61a2.76,2.76,0,0,0,1.14-.39,2.21,2.21,0,0,0,.79-0.89,4.42,4.42,0,0,0,0-3.06,2,2,0,0,0-.71-0.87A2.74,2.74,0,0,0,99,55.36a10,10,0,0,0-1.5-.1H96.81v5.8Z"/><path class="cls-1" d="M111.18,60.78a14.46,14.46,0,0,0-1.26-.73,3.19,3.19,0,0,0-1.49-.34,2.24,2.24,0,0,0-1.05.26,0.92,0.92,0,0,0-.5.88,1.2,1.2,0,0,0,.37.86,4.36,4.36,0,0,0,.93.71l1.2,0.69a8.17,8.17,0,0,1,1.2.81A4,4,0,0,1,111.5,65a2.86,2.86,0,0,1,.37,1.49,3.27,3.27,0,0,1-.32,1.5,2.81,2.81,0,0,1-.88,1,3.76,3.76,0,0,1-1.31.58,6.87,6.87,0,0,1-1.62.18,7.77,7.77,0,0,1-1.77-.17q-0.72-.17-1.13-0.31V67.16a12.22,12.22,0,0,0,1.28.74,3.74,3.74,0,0,0,1.74.4,2,2,0,0,0,1.44-.42,1.29,1.29,0,0,0,.43-0.95,1.2,1.2,0,0,0-.37-0.86,4.86,4.86,0,0,0-.91-0.72q-0.55-.34-1.18-0.69a7.68,7.68,0,0,1-1.18-.79,4.25,4.25,0,0,1-.91-1,2.44,2.44,0,0,1-.37-1.35,3.32,3.32,0,0,1,.22-1.19,2.61,2.61,0,0,1,.67-1,3.45,3.45,0,0,1,1.18-.69,5.13,5.13,0,0,1,1.75-.26,6.57,6.57,0,0,1,1.57.17l1,0.26v2Z"/><path class="cls-1" d="M116.3,69.63l-4.18-11h2.4l2.86,7.77h0L120,58.64h2.17l-5.6,15.77H114.7Z"/><path class="cls-1" d="M131.13,69.22a10.76,10.76,0,0,1-1.44.4,7.37,7.37,0,0,1-1.46.15,5.24,5.24,0,0,1-4-1.53,6.52,6.52,0,0,1-1.43-4.59,6,6,0,0,1,1.13-3.85,4.2,4.2,0,0,1,3.48-1.41,5.35,5.35,0,0,1,1.84.27,3.08,3.08,0,0,1,1.21.78,2.85,2.85,0,0,1,.66,1.2,5.76,5.76,0,0,1,.19,1.54h-2.42c0-.32,0-0.65,0-1a3.36,3.36,0,0,0-.21-0.91,1.65,1.65,0,0,0-.47-0.67,1.28,1.28,0,0,0-.86-0.26,1.45,1.45,0,0,0-.88.27,2.13,2.13,0,0,0-.63.75,4.12,4.12,0,0,0-.38,1.12,7.1,7.1,0,0,0-.12,1.37,9.5,9.5,0,0,0,.22,2,6.37,6.37,0,0,0,.69,1.84A4,4,0,0,0,127.39,68a3.07,3.07,0,0,0,1.79.51,4.2,4.2,0,0,0,1-.11,7.61,7.61,0,0,0,1-.3v1.07Z"/><path class="cls-1" d="M132.94,53.75h2.31v7.47h0q0.14-.3.41-0.78a4.45,4.45,0,0,1,.73-0.94,4.26,4.26,0,0,1,1.12-.79,3.44,3.44,0,0,1,1.55-.33,2.62,2.62,0,0,1,1.25.27,2.5,2.5,0,0,1,.84.72,3.1,3.1,0,0,1,.49,1,4.35,4.35,0,0,1,.16,1.17v8h-2.31V62.7q0-.53,0-1a2.82,2.82,0,0,0-.19-0.82,1.4,1.4,0,0,0-.42-0.57,1.11,1.11,0,0,0-.71-0.22,1.91,1.91,0,0,0-1.42.58,4.34,4.34,0,0,0-.9,1.37,7.21,7.21,0,0,0-.47,1.62,8.73,8.73,0,0,0-.14,1.34v4.5h-2.31V53.75Z"/><path class="cls-1" d="M148.91,69.76a4.38,4.38,0,0,1-3.61-1.46,6.56,6.56,0,0,1-1.19-4.23,6.56,6.56,0,0,1,1.19-4.23,5.2,5.2,0,0,1,7.23,0,6.52,6.52,0,0,1,1.2,4.23,6.52,6.52,0,0,1-1.2,4.23A4.41,4.41,0,0,1,148.91,69.76Zm-2.29-5.69q0,0.75.07,1.58a6.42,6.42,0,0,0,.31,1.53,3,3,0,0,0,.7,1.16,1.63,1.63,0,0,0,1.21.46,1.66,1.66,0,0,0,1.23-.46,3,3,0,0,0,.7-1.16,6.42,6.42,0,0,0,.31-1.53q0.07-.82.07-1.58t-0.07-1.58a6.42,6.42,0,0,0-.31-1.53,3,3,0,0,0-.7-1.17,1.67,1.67,0,0,0-1.23-.46,1.64,1.64,0,0,0-1.21.46A3,3,0,0,0,147,61a6.42,6.42,0,0,0-.31,1.53Q146.62,63.32,146.62,64.07Z"/><path class="cls-1" d="M156.11,53.75h2.31V69.51h-2.31V53.75Z"/><path class="cls-1" d="M165.59,69.76A4.38,4.38,0,0,1,162,68.3a6.56,6.56,0,0,1-1.19-4.23A6.56,6.56,0,0,1,162,59.85a5.2,5.2,0,0,1,7.23,0,6.52,6.52,0,0,1,1.2,4.23,6.52,6.52,0,0,1-1.2,4.23A4.41,4.41,0,0,1,165.59,69.76Zm-2.29-5.69q0,0.75.07,1.58a6.42,6.42,0,0,0,.31,1.53,3,3,0,0,0,.7,1.16,1.63,1.63,0,0,0,1.21.46,1.66,1.66,0,0,0,1.23-.46,3,3,0,0,0,.7-1.16,6.42,6.42,0,0,0,.31-1.53q0.07-.82.07-1.58t-0.07-1.58a6.42,6.42,0,0,0-.31-1.53,3,3,0,0,0-.7-1.17,1.67,1.67,0,0,0-1.23-.46,1.64,1.64,0,0,0-1.21.46,3,3,0,0,0-.7,1.17,6.43,6.43,0,0,0-.31,1.53Q163.3,63.32,163.3,64.07Z"/><path class="cls-1" d="M181.17,69.19a9.67,9.67,0,0,1-.23,2.15,4.19,4.19,0,0,1-.82,1.74,4,4,0,0,1-1.63,1.15,7.22,7.22,0,0,1-2.69.42,9.87,9.87,0,0,1-1.78-.14q-0.73-.14-1.35-0.3V72l0.65,0.39a8.4,8.4,0,0,0,.82.43,6.82,6.82,0,0,0,1,.35,3.82,3.82,0,0,0,1.06.15,3,3,0,0,0,1.45-.3,1.93,1.93,0,0,0,.81-0.85,3.8,3.8,0,0,0,.35-1.3,15.79,15.79,0,0,0,.08-1.64V68h0a3.78,3.78,0,0,1-.31.46A2.54,2.54,0,0,1,178,69a3,3,0,0,1-.81.4,4.35,4.35,0,0,1-3-.26,3.55,3.55,0,0,1-1.27-1.15,5.27,5.27,0,0,1-.73-1.76A9.73,9.73,0,0,1,171.9,64a11.59,11.59,0,0,1,.19-2.18,5,5,0,0,1,.67-1.77A3.46,3.46,0,0,1,174,58.82a4,4,0,0,1,2-.43,2.83,2.83,0,0,1,1.15.22,3,3,0,0,1,.82.53,2.91,2.91,0,0,1,.54.66,5.42,5.42,0,0,1,.32.63h0V58.64h2.31V69.19ZM174.41,64a11.86,11.86,0,0,0,.09,1.44,5.62,5.62,0,0,0,.33,1.37,2.75,2.75,0,0,0,.66,1,1.55,1.55,0,0,0,1.11.4,1.72,1.72,0,0,0,1.19-.39,2.5,2.5,0,0,0,.66-1,4.85,4.85,0,0,0,.29-1.33q0.06-.72.06-1.41t-0.07-1.43a5,5,0,0,0-.31-1.36,2.87,2.87,0,0,0-.66-1,1.8,1.8,0,0,0-2.27,0,2.69,2.69,0,0,0-.67,1,5.13,5.13,0,0,0-.32,1.33A12.43,12.43,0,0,0,174.41,64Z"/><path class="cls-1" d="M184.21,53.75h2.49V56h-2.49V53.75Zm0.09,4.89h2.31V69.51H184.3V58.64Z"/><path class="cls-1" d="M197.33,69.22a10.76,10.76,0,0,1-1.44.4,7.37,7.37,0,0,1-1.46.15,5.24,5.24,0,0,1-4-1.53A6.52,6.52,0,0,1,189,63.64a6,6,0,0,1,1.13-3.85,4.2,4.2,0,0,1,3.48-1.41,5.35,5.35,0,0,1,1.84.27,3.08,3.08,0,0,1,1.21.78,2.85,2.85,0,0,1,.66,1.2,5.76,5.76,0,0,1,.19,1.54h-2.42c0-.32,0-0.65,0-1a3.35,3.35,0,0,0-.21-0.91,1.65,1.65,0,0,0-.47-0.67,1.28,1.28,0,0,0-.86-0.26,1.46,1.46,0,0,0-.88.27,2.13,2.13,0,0,0-.63.75,4.12,4.12,0,0,0-.38,1.12,7.09,7.09,0,0,0-.12,1.37,9.5,9.5,0,0,0,.22,2,6.37,6.37,0,0,0,.69,1.84A4,4,0,0,0,193.59,68a3.07,3.07,0,0,0,1.79.51,4.2,4.2,0,0,0,1-.11,7.6,7.6,0,0,0,1-.3v1.07Z"/><path class="cls-1" d="M204.53,68h0a4.83,4.83,0,0,1-.39.54,3.32,3.32,0,0,1-.63.58,3.53,3.53,0,0,1-.88.46,3.4,3.4,0,0,1-1.17.18,3.2,3.2,0,0,1-1.19-.22,2.91,2.91,0,0,1-.94-0.58,2.77,2.77,0,0,1-.62-0.86,2.49,2.49,0,0,1-.23-1.06,2.7,2.7,0,0,1,.35-1.43,3.38,3.38,0,0,1,.9-1,4.29,4.29,0,0,1,1.23-.62,11.34,11.34,0,0,1,1.37-.34,10.59,10.59,0,0,1,1.27-.16l0.95-.06v-1q0-.46,0-1a4.07,4.07,0,0,0-.17-1,2,2,0,0,0-.46-0.8,1.17,1.17,0,0,0-.88-0.32,1.69,1.69,0,0,0-.86.19,1.39,1.39,0,0,0-.51.51,2.36,2.36,0,0,0-.26.75q-0.08.43-.13,0.91h-2.42a5.94,5.94,0,0,1,.22-1.21,2.5,2.5,0,0,1,.63-1.06,3.37,3.37,0,0,1,1.26-.77,6.09,6.09,0,0,1,2.08-.3,5.22,5.22,0,0,1,2.09.34,2.67,2.67,0,0,1,1.15.91,3,3,0,0,1,.49,1.31,11.11,11.11,0,0,1,.1,1.54v7h-2.31V68Zm0-3.59c-0.24,0-.56,0-1,0.1a5.09,5.09,0,0,0-1.18.31,2.74,2.74,0,0,0-1,.67,1.67,1.67,0,0,0-.42,1.2,1.76,1.76,0,0,0,.38,1.18,1.19,1.19,0,0,0,.95.45,1.94,1.94,0,0,0,.69-0.15,2.25,2.25,0,0,0,.73-0.47,2.68,2.68,0,0,0,.82-2V64.42Z"/><path class="cls-1" d="M209.92,53.75h2.31V69.51h-2.31V53.75Z"/><path class="cls-1" d="M229.41,56.08l-0.61-.3a9.34,9.34,0,0,0-.91-0.35,9.75,9.75,0,0,0-1.13-.3A6.3,6.3,0,0,0,225.5,55a2.6,2.6,0,0,0-1.71.55,1.78,1.78,0,0,0-.66,1.44,2,2,0,0,0,.55,1.41A6.6,6.6,0,0,0,225,59.48q0.82,0.5,1.79,1a10.9,10.9,0,0,1,1.79,1.11A5.77,5.77,0,0,1,230,63.06a3.8,3.8,0,0,1,.55,2.09,4.62,4.62,0,0,1-.45,2.11,3.93,3.93,0,0,1-1.22,1.44,5.13,5.13,0,0,1-1.83.81,9.62,9.62,0,0,1-2.24.25,12.15,12.15,0,0,1-1.3-.07q-0.64-.07-1.18-0.16t-0.94-.19q-0.4-.1-0.58-0.17V66.73q0.27,0.16.73,0.39t1,0.46a9.35,9.35,0,0,0,1.26.39,5.87,5.87,0,0,0,1.36.16,3.57,3.57,0,0,0,2-.54,2,2,0,0,0,.8-1.75,2.22,2.22,0,0,0-.55-1.53,6.22,6.22,0,0,0-1.37-1.13q-0.82-.51-1.79-1a10.89,10.89,0,0,1-1.79-1.11,5.92,5.92,0,0,1-1.37-1.46,3.68,3.68,0,0,1-.55-2.07,3.57,3.57,0,0,1,1.35-3,6.08,6.08,0,0,1,3.82-1.05q0.55,0,1.1,0l1,0.11,0.88,0.14,0.62,0.11v2.17Z"/><path class="cls-1" d="M236.52,69.76a4.38,4.38,0,0,1-3.61-1.46,6.56,6.56,0,0,1-1.19-4.23,6.56,6.56,0,0,1,1.19-4.23,5.2,5.2,0,0,1,7.23,0,6.52,6.52,0,0,1,1.2,4.23,6.52,6.52,0,0,1-1.2,4.23A4.41,4.41,0,0,1,236.52,69.76Zm-2.29-5.69q0,0.75.07,1.58a6.42,6.42,0,0,0,.31,1.53,3,3,0,0,0,.7,1.16,1.63,1.63,0,0,0,1.21.46,1.66,1.66,0,0,0,1.23-.46,3,3,0,0,0,.7-1.16,6.42,6.42,0,0,0,.31-1.53q0.07-.82.07-1.58t-0.07-1.58a6.42,6.42,0,0,0-.31-1.53,3,3,0,0,0-.7-1.17,1.67,1.67,0,0,0-1.23-.46,1.64,1.64,0,0,0-1.21.46,3,3,0,0,0-.7,1.17,6.43,6.43,0,0,0-.31,1.53Q234.23,63.32,234.23,64.07Z"/><path class="cls-1" d="M251.17,69.22a10.75,10.75,0,0,1-1.44.4,7.37,7.37,0,0,1-1.46.15,5.24,5.24,0,0,1-4-1.53,6.52,6.52,0,0,1-1.43-4.59,6,6,0,0,1,1.13-3.85,4.2,4.2,0,0,1,3.48-1.41,5.34,5.34,0,0,1,1.84.27,3.08,3.08,0,0,1,1.21.78,2.85,2.85,0,0,1,.66,1.2,5.76,5.76,0,0,1,.19,1.54H248.9c0-.32,0-0.65,0-1a3.35,3.35,0,0,0-.21-0.91,1.65,1.65,0,0,0-.47-0.67,1.28,1.28,0,0,0-.86-0.26,1.45,1.45,0,0,0-.88.27,2.13,2.13,0,0,0-.63.75,4.12,4.12,0,0,0-.38,1.12,7.09,7.09,0,0,0-.12,1.37,9.5,9.5,0,0,0,.22,2,6.37,6.37,0,0,0,.69,1.84A4,4,0,0,0,247.43,68a3.07,3.07,0,0,0,1.79.51,4.2,4.2,0,0,0,1-.11,7.6,7.6,0,0,0,1-.3v1.07Z"/><path class="cls-1" d="M253,53.75h2.49V56H253V53.75Zm0.09,4.89h2.31V69.51h-2.31V58.64Z"/><path class="cls-1" d="M266.38,69.15a9.19,9.19,0,0,1-1.44.46,8,8,0,0,1-1.74.16,6.44,6.44,0,0,1-2.11-.34,4.44,4.44,0,0,1-1.74-1.1,5.23,5.23,0,0,1-1.17-1.92,8.29,8.29,0,0,1-.42-2.81A8.51,8.51,0,0,1,258,61.5a4.35,4.35,0,0,1,.79-1.65,3.64,3.64,0,0,1,1.44-1.08,5.42,5.42,0,0,1,2.17-.39,4.86,4.86,0,0,1,2.14.4,3.33,3.33,0,0,1,1.27,1,3.69,3.69,0,0,1,.62,1.43,8,8,0,0,1,.16,1.59h-6.51a8.89,8.89,0,0,0,.21,1.79A6.59,6.59,0,0,0,261,66.5,4.48,4.48,0,0,0,262.26,68a3.37,3.37,0,0,0,2,.59,4.86,4.86,0,0,0,2.08-.46v1.05Zm-2.06-7.36a4.69,4.69,0,0,0-.07-0.74,2.35,2.35,0,0,0-.29-0.8,1.91,1.91,0,0,0-.62-0.64,2.16,2.16,0,0,0-2.12,0,2.16,2.16,0,0,0-.65.7,2.89,2.89,0,0,0-.32.81,5.79,5.79,0,0,0-.11.64h4.18Z"/><path class="cls-1" d="M274.52,69.6a4.35,4.35,0,0,1-.78.13c-0.29,0-.56,0-0.82,0a4.57,4.57,0,0,1-2.52-.59,2.4,2.4,0,0,1-.9-2.17V59.82h-1.74V58.64h1.74V56.08l2.31-1.39v4h3v1.19h-3v6.26a10.09,10.09,0,0,0,0,1,1.85,1.85,0,0,0,.22.74,1.06,1.06,0,0,0,.5.45,2.17,2.17,0,0,0,.88.15,4.4,4.4,0,0,0,.55,0,1.8,1.8,0,0,0,.53-0.15V69.6Z"/><path class="cls-1" d="M279,69.63l-4.18-11h2.4l2.86,7.77h0l2.56-7.77h2.17l-5.6,15.77h-1.85Z"/><path class="cls-1" d="M13,43.7l2-3.78c0.81-1.5,1.65-3,2.39-4.63a11.33,11.33,0,0,1,6-6.94,7.88,7.88,0,0,1-4.25-3l-0.33-.33L18,24.35a3.26,3.26,0,0,0-2.84-.68A6,6,0,0,0,12.7,27L12,28.37l-0.14.35-0.55,1.5a36.71,36.71,0,0,0-2.22,13.1c0,0.75,0,1.51.06,2.27A6,6,0,0,0,11,49.33a0.85,0.85,0,0,1,.25.24,3.84,3.84,0,0,1-.1-0.87,10.11,10.11,0,0,1,1.61-4.52L13,43.7"/><path class="cls-1" d="M64.69,23.15a1.42,1.42,0,0,1,0-.29l0-.13a0.73,0.73,0,0,0-.2.39l0.18,0h0"/><path class="cls-1" d="M31.17,31.68l0-.16a2.84,2.84,0,0,1-.24-0.26l-0.13,1,0,0a0.82,0.82,0,0,0,.39-0.52"/><path class="cls-1" d="M19,90.32a0.73,0.73,0,0,1-.8-0.8l-0.1-.41,0-.08,0.21-.33a10.93,10.93,0,0,1,1.47-1.94A8.87,8.87,0,0,1,19.34,84a10.86,10.86,0,0,1,1-4.44,7.62,7.62,0,0,1,1.51-2,8.18,8.18,0,0,1-3-.93,1.48,1.48,0,0,0-1.79.06,1.24,1.24,0,0,0-.5.43l0,0a1.85,1.85,0,0,0-.31,1V80.5c0.07,2.43.15,4.94-1.31,7.1-0.65,1.29.39,1.9,1.4,2.5a3.61,3.61,0,0,1,1.1.82,0.92,0.92,0,0,0,.85.11l0.37,0c0.1-.21.22-0.44,0.34-0.67m0.08-10.23,0.2,0,0,0.19a1.51,1.51,0,0,0,.28,1.13l0.12,0.17-0.21,0a0.77,0.77,0,0,1-.64-0.1,0.42,0.42,0,0,1-.12-0.36h0V80.91a0.63,0.63,0,0,1,.42-0.82"/><path class="cls-1" d="M19.1,89l-0.05.15a1.2,1.2,0,0,0,.09.37,1.54,1.54,0,0,1,.09.36A5.72,5.72,0,0,1,19.9,89L20,88.58A1.79,1.79,0,0,0,20,88.26a2.72,2.72,0,0,0-.91.78"/><path class="cls-1" d="M61.12,19.92a5.84,5.84,0,0,1,.1-0.93l0.09-.59,0.37,0.35,0,0.07a1.52,1.52,0,0,0,0,.32,3.51,3.51,0,0,0,0,.45l0,0.23A2.83,2.83,0,0,0,62,18.62,4.14,4.14,0,0,0,61.61,17a3.73,3.73,0,0,0-.81,2,1.9,1.9,0,0,0,.12.66L61.12,20V19.92"/><path class="cls-1" d="M61.93,23.61a1.65,1.65,0,0,1,.85-0.09h0.38a3.69,3.69,0,0,1-1.7-1.37l0,0,0-.32a3.25,3.25,0,0,1-.72.71l-0.11.09a4.08,4.08,0,0,1-.87.43l-0.16.07-0.12.06a4.18,4.18,0,0,1-.68.26,8.54,8.54,0,0,0,1.56.11l1.63,0.07"/><path class="cls-1" d="M32.29,31.65l0-.08L32,32a1.9,1.9,0,0,1-1.13,1,1.88,1.88,0,0,0-1,.77,2.39,2.39,0,0,0,0,.52v0.07l0.18-.16a12.21,12.21,0,0,0,1.95-2l0.27-.55"/><path class="cls-1" d="M72.63,0H7A7,7,0,0,0,0,7V94.31a7,7,0,0,0,7,7H72.63a7,7,0,0,0,7-7V7a7,7,0,0,0-7-7M65.78,15a10.22,10.22,0,0,1,1.78-1.56l0.84-.65,0.2,0.17a9.44,9.44,0,0,1-1.33,1.63l-1,1.14L65.71,15ZM64,17a1,1,0,0,1,.31-0.45l0.09-.07,0.48,0.43L65,17.06l-0.31.25a0.51,0.51,0,0,1-.47.21l0,0H63.85l0-.25A0.41,0.41,0,0,0,64,17m-0.5,3V19.66l0.22,0.24a0.63,0.63,0,0,0,.53,0h0.07a0.53,0.53,0,0,1,.46.12,0.51,0.51,0,0,1,.09.45l0,0.11H64.75a2.41,2.41,0,0,1-1.23-.19l0-.12V20ZM61.3,8.25c0-.43,0-0.54.18-0.56a0.17,0.17,0,0,1,.18.13l0,0.06h0a15.11,15.11,0,0,1,.2,2.91V11l0,0.13H61.19V11a17.44,17.44,0,0,1,.11-2.78m0.56,5.26L61.81,14l-0.19-.16a1.24,1.24,0,0,1-.27-1.17V12.55l0-.2,0.18,0.1a1,1,0,0,1,.3,1.07m-2.19,7.07-0.49-.16a5.79,5.79,0,0,0-.91,0,0.33,0.33,0,0,1-.3,0A0.42,0.42,0,0,1,57.9,20V19.66l0.07,0a1.1,1.1,0,0,1,1.26.49Zm-1.44-4.19,0.09-.15L59.09,17l0.09,0.19-0.08.18,0,0v0l-0.16.2-0.4-.25A1.57,1.57,0,0,0,58,17.12l-0.2,0Zm-3-2.79a3.55,3.55,0,0,1,1.17,1l0.8,0.82-0.2.92-1.7-1.57v0a1.29,1.29,0,0,1-.17-0.61L55,13.77,55,13.49Zm-2,6.14a0.19,0.19,0,0,1,.21-0.06l1.11,0a12.78,12.78,0,0,1,1.88,0h0.09l0.19,0.69H56.54a8.52,8.52,0,0,1-2.25-.2L53.37,20l-0.15-.09,0-.07Zm-6-8.51,0.18,0.45V11.8a2.85,2.85,0,0,1-1.68,2.46l-0.15,2.19-0.07.77-0.1.33-0.08.25c-0.07.82-.1,1.57-0.1,2.18a7.44,7.44,0,0,0,.08,1.38l0,0.16A0.54,0.54,0,0,1,45,22a0.21,0.21,0,0,1-.27-0.16,17.55,17.55,0,0,1-.32-3.25c0-.26,0-0.51,0-0.73a1.66,1.66,0,0,1,0-.35,2.06,2.06,0,0,1,.19-0.8,2.24,2.24,0,0,0,.2-1.24l0-.63,0-.5a7.48,7.48,0,0,1-2.64-.28L41.87,14,42,14.08v0.06c0,1.19-1.19,1.47-2.13,1.7L39.17,16l0,0.1a0.61,0.61,0,0,1-.15.35l-0.12.23,0,0.08,0,0a3.29,3.29,0,0,1-2.89.67l0,0h0l0.1,0,0.18,0.06,0.06,0V17.7a0.36,0.36,0,0,1-.32.38h0L35.83,18a0.48,0.48,0,0,1-.39-0.45h0l-0.23,0a0.37,0.37,0,0,0-.08.28v0l0,0.31a0.55,0.55,0,0,0-.09.27v0.08a1,1,0,0,0,.57.41,1.48,1.48,0,0,1,.63.42l0.08,0-0.26.28-0.37-.05-0.12,0H35.45l-0.37-.31a2,2,0,0,1-1-1.42L34,17.86a0.41,0.41,0,0,1-.43.18l-0.14,0,0-.14,0.16-.46a2.35,2.35,0,0,1,2.43-.52L36.51,17A2.39,2.39,0,0,0,38,16L38.11,16a1.19,1.19,0,0,1-.72-0.14L37,15.71l-0.13,0L37,15.32l0.13,0a4.12,4.12,0,0,0,4.21-1.47,6.14,6.14,0,0,0-.91-0.11l0-.26a5.66,5.66,0,0,1,2.42-.07c1.19,0.14,2.32.26,3.26-.73a3.09,3.09,0,0,0,.06-0.64,1.79,1.79,0,0,0-.26-1,1.09,1.09,0,0,0-.81-0.45,3.69,3.69,0,0,0-2.12.52h0a0.58,0.58,0,0,1,.66.57v0l0,0a0.28,0.28,0,0,1-.34.11H43.13l-0.35-.13a3.23,3.23,0,0,1-.66-0.27l-0.62,0-0.62,0,0-.26a2,2,0,0,1,.87-0.13l0.52,0V10.86l0,0c1-1.23,2.62-1,4.1-.66a1.49,1.49,0,0,1,.86,1.07m-4.83,5.42a2,2,0,0,0-1.87-.23l-0.16-.21h0A2.43,2.43,0,0,1,42,15.88L42.39,16a4.93,4.93,0,0,0,1.84.31l0.2,0-0.12.43a0.61,0.61,0,0,1-.56.62l-0.14.08-0.23.15,0,0.15v0.06a0.57,0.57,0,0,1-.18.47h0a0.51,0.51,0,0,1,.36.26h0a0.24,0.24,0,0,1-.05.22,0.68,0.68,0,0,1-.56.08l-0.2,0,0-.07a0.33,0.33,0,0,0-.28-0.11,0.68,0.68,0,0,1-.49-0.22l0-.08,0-.09A0.22,0.22,0,0,1,42.1,18l0.11,0,0,0.12a0.63,0.63,0,0,0,.53.16l-0.07.07,0,0,0.08-.17h0l0,0a0.52,0.52,0,0,1-.11-0.35,2.05,2.05,0,0,1,0-.27V17.53l-0.8.19-1,.23,0.23-.5h0.1A1.52,1.52,0,0,0,42,17.24,1.73,1.73,0,0,1,43,17l0.08-.1a3.49,3.49,0,0,1-.7-0.25m-1,5.23,0.09-.08,0.08,0s0.14,0,.17.35a0.55,0.55,0,0,0,.65.23,0.54,0.54,0,0,1,.68,0l0.07,0.19,0.13,0,0,0,0.3,0.21,0.07,0.07-0.05.1a0.52,0.52,0,0,1-.41.23l-0.14,0H43a0.87,0.87,0,0,1-.7-0.28l-0.11,0L42,22.93,41.93,23l-0.08,0a1.14,1.14,0,0,1-.48-0.67,0.43,0.43,0,0,1,0-.43m2.22,0.45a0.18,0.18,0,0,1-.2-0.08l0-.29V21.89H43.28l-0.3,0h0l0,0a0.84,0.84,0,0,1-.4-0.55,0.45,0.45,0,0,1,.15-0.37l0.07-.15L43,21.15l0.09,0.17c0.13,0.21.16,0.19,0.33,0.12a0.94,0.94,0,0,1,.72-0.08l0,0h0a0.6,0.6,0,0,1,.36.42,0.31,0.31,0,0,1-.08.25,0.63,0.63,0,0,1-.49.16l-0.27.06ZM37,32.07l0,0v0.05a0.67,0.67,0,0,1-.12.5l-0.31.18v0l-0.07,0A1.69,1.69,0,0,1,36,32.19l0-.08a1.76,1.76,0,0,1,.34-1.81L36.53,30l0,0.42A1.82,1.82,0,0,0,37,32.07m-4,7.86,0,0V40a0.41,0.41,0,0,1-.43.28l-0.22,0,0-.13a6.23,6.23,0,0,0-.86-2.35l-0.15-.31a1.52,1.52,0,0,0-.65.78l-0.12.12a0.81,0.81,0,0,1-.82.34l-0.18,0,0.09-.15a3.71,3.71,0,0,0,.56-1.39v0l0.07-.07a0.34,0.34,0,0,1,.26-0.14L30.6,37a4.29,4.29,0,0,0,1.75-1.52l-0.58.28-2.4,1.12L29,37.8A5.36,5.36,0,0,0,28.48,39a1.5,1.5,0,0,0,0,.36,4.64,4.64,0,0,0,.19,1.1,4.56,4.56,0,0,1,.19,1.1,1.35,1.35,0,0,1-.84,1.3,35.52,35.52,0,0,1-6.71,2.56l-2.92.93a7.4,7.4,0,0,0-2.71,1.78L15.42,48c0.77-1.66,2.77-2.65,4.45-3.32a19.33,19.33,0,0,0,1.65-2.78A13.71,13.71,0,0,1,24,38.09l0.17-.29a3.47,3.47,0,0,0,.61-1.46V36.19l0.32,0.08,0,0a0.9,0.9,0,0,1,0,1l-0.08.2a9.37,9.37,0,0,1-.94,1.76c-0.65,1.13-1.46,2.53-1.72,3.19l-0.21.51A3.05,3.05,0,0,0,21.9,44l2-.72A34.13,34.13,0,0,0,28,41.63a9.64,9.64,0,0,1-.27-1.58l-0.2-1.3V38.5L28,37.6a6.74,6.74,0,0,0,.66-1.19l0-.06,0.06,0c0.67-.23,1.39-0.51,2.13-0.82L31,35.09,31,35l0,0a6.87,6.87,0,0,0,1-1.71l-0.55.6a6.69,6.69,0,0,1-1.53,1.47,2.49,2.49,0,0,1-.64.76H29l-0.16-.19h0l0.06-.24a8.93,8.93,0,0,0,.34-2V33.5l0.89-.71-0.06-.13,0.34-2.48,0.25,0.29a1.2,1.2,0,0,1,1,.95l0,0.1,0.2-.15a0.83,0.83,0,0,1,.55-0.31l0.29,0-0.3.4,0.23,0.07a2.73,2.73,0,0,1-.1.46,0.57,0.57,0,0,1,.29-0.08H33L33,32.07a3.4,3.4,0,0,0-.19.8,2.2,2.2,0,0,1-.45,1.18v0a1.3,1.3,0,0,1-.74,1l-0.18.15c0.47-.21.94-0.43,1.42-0.66l0,0h0a0.37,0.37,0,0,1,.31.23v0a0.26,0.26,0,0,1-.2.21l-0.1.05,0,0.07-0.08,0L33,35.42v0.07A3.78,3.78,0,0,1,31.87,37a7.57,7.57,0,0,0,.82,1.42,3.94,3.94,0,0,0,1.07-1.11,4.08,4.08,0,0,1,1-1.11L35,36.1a2.44,2.44,0,0,1,1.39-.46l0.34,0.1-0.32.15A6.07,6.07,0,0,0,34,38.43l-0.61.9a0.67,0.67,0,0,1-.29.32c-0.19.13-.2,0.16-0.13,0.28m-2.27.48,0.23-.13,0,0a2.52,2.52,0,0,1,.52,1.53,2.4,2.4,0,0,1-.21,1l0,0L31.07,43a0.49,0.49,0,0,1-.64.19l-0.15-.09L30.4,43a2.4,2.4,0,0,0,.28-2.59M31,15.15V14.88a1.17,1.17,0,0,1,1,.48l0.07,0.07,0,0,0,0.95A3.28,3.28,0,0,0,32.25,18a1.34,1.34,0,0,0,1.29.42h0.1l0.06,0.12a0.28,0.28,0,0,1,0,.27l0,0L33.49,19a0.91,0.91,0,0,1-.48.26,1.51,1.51,0,0,1-1.54-.68,1.84,1.84,0,0,1-.32-1.09,5.56,5.56,0,0,1,.34-1.61l0.06-.2A0.68,0.68,0,0,0,31,15.15M36.1,15l0.1,0.06,0.1,0a0.29,0.29,0,0,1,.29.26v0.13l-0.32,0-0.4,0a2.18,2.18,0,0,0-2.23.82l-0.13.15a0.48,0.48,0,0,1-.36.26h-0.1l0-.1a1.12,1.12,0,0,1,.29-1l0.13-.18a2.32,2.32,0,0,1,2-.52ZM36,14.69l0-.13a2.5,2.5,0,0,1,1.31-1.86h0a4.92,4.92,0,0,1,3.88-.12h0l-0.08.26a4.32,4.32,0,0,0-3.32.71L37.47,14a1.33,1.33,0,0,1-1.35.74ZM11.52,50.43a3.38,3.38,0,0,1-.2-0.54l-0.1.17A0.33,0.33,0,0,1,10.91,50,6.35,6.35,0,0,1,8.2,44.91,17.14,17.14,0,0,1,8.07,41l0-2,0.19-1.4c0.12-.93.24-1.9,0.45-2.81a43.49,43.49,0,0,1,3.07-9l0.91-1.5a4.51,4.51,0,0,1,4-2.1,5.27,5.27,0,0,1,1.7.79h0a3.55,3.55,0,0,1,3.12-2.21c2.2,0.13,3.23,2.5,3.57,3.51a4.26,4.26,0,0,0,1.17,1.59l0.58,0.62,0.19,0.1a1.67,1.67,0,0,1,.53.37h0l0.06,0.19a0.33,0.33,0,0,1-.13.23l0,0h0a0.46,0.46,0,0,1-.36,0,2.11,2.11,0,0,1-.91-0.3,5.26,5.26,0,0,1-2.33-2.81L23.77,24l-0.06-.16c-0.39-.87-0.86-2-2.07-2a2.91,2.91,0,0,0-2.25,1l-0.57.46a20,20,0,0,1,2.63,2.55,8.3,8.3,0,0,0,1.73,1.64l0.2,0.08a5.49,5.49,0,0,0,1.42.38,8.47,8.47,0,0,0,2.06-.11,12.56,12.56,0,0,1,1.79-.14,3.63,3.63,0,0,0,2-1.89,5.79,5.79,0,0,0,.91-2.49l0.33-1.34-0.14-.31h0a2.49,2.49,0,0,1-2-1,1.6,1.6,0,0,1-.29-1,5.15,5.15,0,0,1,.12-0.94,4.66,4.66,0,0,0,.11-0.84V17.78a0.63,0.63,0,0,0-.16.17,0.85,0.85,0,0,1-.32.32,1.91,1.91,0,0,1-1.61.19l-0.2,0,0,0a3.07,3.07,0,0,1-1.25-2.24V16.12h0l0,0a2.2,2.2,0,0,1-.67-1.36V14.62a0.2,0.2,0,0,1,.11-0.21,0.93,0.93,0,0,1-.33-0.86l0.07-.37,0.33,0.62a0.71,0.71,0,0,0,.43.49l0.15-.07A0.41,0.41,0,0,0,26.43,14a9.55,9.55,0,0,1,.82-3,1.94,1.94,0,0,1,2.19-.88A2.18,2.18,0,0,1,31,11.38l0,0,0-.16,0.15-.33,0,0.05c1.45-3.64,6.25-3.82,7.7-3.79A10.28,10.28,0,0,1,43,8.51a0.35,0.35,0,0,1,.14.28l0,0.2V9.05l0.29,0a2.16,2.16,0,0,0,.88-0.22l0.27-.16-0.12.51-0.05,0a9.58,9.58,0,0,1-2.45.74,7.82,7.82,0,0,0-2.91,1,8.06,8.06,0,0,0-3.31,2.41,10.78,10.78,0,0,1-2.45,2.06,1.21,1.21,0,0,1-1.55-.74,1.38,1.38,0,0,1,.64-1.11l0.26-.24,0.09,0.06a0.23,0.23,0,0,1,.07.28v0l0,0.1-0.07,0a0.93,0.93,0,0,0-.44.84v0.06a0.36,0.36,0,0,0,.25,0,6.34,6.34,0,0,0,1.62-1.38,20,20,0,0,1,1.5-1.41A11.86,11.86,0,0,1,42.4,9.07c-3.53-1.39-6.3-1.37-8.45.08a9.81,9.81,0,0,0-3,4.41l0,0.12-0.26-.06a0.85,0.85,0,0,1-.35-0.77,2.25,2.25,0,0,0-.9-1.58,0.93,0.93,0,0,0-1.14,0,1.51,1.51,0,0,0-.81,1.33,3,3,0,0,1-.36,2l0,0,0,0a1.28,1.28,0,0,1-1,.21h0a1.13,1.13,0,0,0,.79.42A1.82,1.82,0,0,0,28,14.06a3.67,3.67,0,0,1,.43-0.81l0.23,0.14a5.32,5.32,0,0,0-.35,1.81v0l0,0a2.58,2.58,0,0,1-1.22,1,1.44,1.44,0,0,0,.26.64l0.1,0.17a1.06,1.06,0,0,0,1,.5,2,2,0,0,0,.84-0.62,0.76,0.76,0,0,0,.18-1.07,1.32,1.32,0,0,1,0-1.23l0.08-.12A0.85,0.85,0,0,1,30.4,14L30.61,14l-0.45.49a1.08,1.08,0,0,0-.29.72,2.63,2.63,0,0,0,.3,1,3.71,3.71,0,0,1,.3.84l0.15,1.25a5,5,0,0,0,.51,2.21l0,0a1.26,1.26,0,0,0,.75.29V20.78l0-.33,0.46,0.42,0.46-.35,0.1-.07,0.13,0.15a0.44,0.44,0,0,1,.12.56,0.37,0.37,0,0,1-.44.23l0,0.1a4.84,4.84,0,0,1,0,.63,10.39,10.39,0,0,1-1,3.89c-0.64,2-2.66,2.51-4.77,2.8a8.38,8.38,0,0,0-6.94,3.49l-1.81,3.52c-0.72,1.44-1.46,2.92-2.3,4.41a24.47,24.47,0,0,1-1.59,3,15,15,0,0,0-2.16,4.93v0.59a5.7,5.7,0,0,0,.55,2.29l0.31,0.85,0.1,0.22a1,1,0,0,0,1,.69,7,7,0,0,0,2.7-.24l0.26-.06c0.32-.08,5.72-3,8.86-4.75a22.48,22.48,0,0,1,2.19-1.22,16.2,16.2,0,0,0,3-1.82,3.46,3.46,0,0,0,1.77-1.3,2.44,2.44,0,0,0,.65-1.62,2.83,2.83,0,0,1,.51-1.52l0.27-.72,0.48-1.2,0.38-.59a3.64,3.64,0,0,1,1.6-1.71l0.14,0.22a9.09,9.09,0,0,0-1.83,4,11.16,11.16,0,0,1-1.4,3.52,14,14,0,0,1-1.85,1.89l-0.78.44a17,17,0,0,1-2.23,1.13,43.3,43.3,0,0,1-6.63,3.8l-0.61.23a2.18,2.18,0,0,0-1.3.77l-0.07.37-0.06.32a3.3,3.3,0,0,1-.31,1.09,20,20,0,0,0,3.37-.81l0.16,0a33.29,33.29,0,0,0,4.83-1.86,24,24,0,0,0,9.48-9L38,41.39a21.54,21.54,0,0,0,.69-3.86l0-.31V37.15a29.24,29.24,0,0,1,.2-2.92c0.1-1,.2-2,0.2-2.91,0-.16,0-0.31,0-0.46a4.19,4.19,0,0,1-.89-1.07L38,30.4v0.1a1.71,1.71,0,0,0,.08.42,1.87,1.87,0,0,1,.08.47l0,0.25L38,31.85l-0.15-.17A2.46,2.46,0,0,1,37.21,30a6.49,6.49,0,0,1,1-2.85,10.39,10.39,0,0,0,.7-1.5,7.16,7.16,0,0,1-2.17-3.56L37,22a5.29,5.29,0,0,0,4.49,3.22l0.22-.11a0.69,0.69,0,0,0,.12-0.43,1.45,1.45,0,0,0,0-.29l0-.15A0.57,0.57,0,0,1,41.83,24l0,0-0.17,0,0.06-.15a0.88,0.88,0,0,1,.63-0.49,0.66,0.66,0,0,1,.52.12c0.11,0.07.11,0.07,0.16,0l0.2,0.18L43,24a0.46,0.46,0,0,1-.35.23l-0.22.09a1.15,1.15,0,0,0,0,.5,0.92,0.92,0,0,1-.52,1.13l-0.06,0a1.67,1.67,0,0,1-.86.19L40.3,26l-0.35-.08-0.33.57a4.06,4.06,0,0,1-.92,1.3,1.93,1.93,0,0,0-.24.82v0L38.38,29a0.87,0.87,0,0,0-.07.25l0,0.05,0.47-.35,0,0L39,28.87a0.55,0.55,0,0,1,.75.13l0,0.07-0.11.21a1.86,1.86,0,0,1,.26.9L40,30.65c0,2.07-.2,4-0.4,6.1l-0.17,1.79-0.3,1.67L38.68,43.1a1.53,1.53,0,0,1-1,1,12.15,12.15,0,0,1-1.38,1.47l-0.47.45A40.62,40.62,0,0,1,29,51.94l-0.42.3A8.63,8.63,0,0,1,24.27,54a10.35,10.35,0,0,0-2.2.61c-1.42.5-2.89,1-4.41,0.42L17.52,55l0.06-.13a6.06,6.06,0,0,1,.77-1.22l0.34-.12a0.41,0.41,0,0,0,.4-0.22L19.18,53a3.38,3.38,0,0,0,.1-0.38l-0.3.13a11.94,11.94,0,0,1-3.72,1.16h-0.2a2.46,2.46,0,0,1-1.73-.49,13,13,0,0,1-1.82-3m27.55,4.79L39,55.13l0-.1a0.34,0.34,0,0,1,.34-0.34h0l0.27,0.23a2.44,2.44,0,0,1,.8,1l0,0.22a1.57,1.57,0,0,1-.29.78,2.28,2.28,0,0,0-.26.57c5.7-3.75,12.29-2.92,18.67-2.11l0.23,0c2.45,0.44,4.86,1.11,5.87,3.12l-0.22.15a4.2,4.2,0,0,0-2.27-1.21,15,15,0,0,1-2.82-.38L58,56.82c-0.39-.09-7.82-1.12-12.18-0.41a7.83,7.83,0,0,0-3.53,1.25l-0.76.28-0.81.3h0a1.92,1.92,0,0,1-1.65-.84,1.17,1.17,0,0,1,.13-1.16c0.23-.49.34-0.78-0.11-1m0.34,9.07h1.41l1.78-.22a24.86,24.86,0,0,0,6.25-1.29l1-.24,0.22-.08a0.64,0.64,0,0,1,.46-0.1l0.13,0.12-0.06-.06a0.22,0.22,0,0,1,.11.17h0l0,0.15-0.1,0a5.28,5.28,0,0,0-.95.59l-0.4.28-0.13.11a1.09,1.09,0,0,0-.55.78v0.05l0,0a3.83,3.83,0,0,0-.55.9,3.29,3.29,0,0,1-.79,1.15,25.79,25.79,0,0,1-5.77,3.66,32.45,32.45,0,0,0,9.57-1.88c1.92-2,4-3.9,6.32-4.43l0.09,0.25a20.48,20.48,0,0,0-2,1.19l-1,.81A6.07,6.07,0,0,0,53,67.68c1.38-.59,3.66-1.66,4.22-3a0.27,0.27,0,0,1,.25-0.21,0.37,0.37,0,0,1,.27.29l0,0,0,0c-1.12,2.41-3.64,3.69-6.08,4.92l-0.09,0-0.63.9c-1.39,2-2.83,4-5.26,4.86a1.72,1.72,0,0,0,1.2.23h0.28l0.54-.13a0.87,0.87,0,0,1,1.18.21L49,76.17a1.81,1.81,0,0,1,.06.93v0l0,0a0.2,0.2,0,0,1-.2.06A0.18,0.18,0,0,1,48.68,77l0-.06,0,0a0.68,0.68,0,0,0-.8.1,1.52,1.52,0,0,0-.75,1.22l-0.19.61V79a3,3,0,0,0,.35,1.26l0.06,0.15,0.09,0.23-0.52-.17,0,0a2.69,2.69,0,0,1-.75-1.92,4.86,4.86,0,0,1,.48-2,3.51,3.51,0,0,1-2.76-1c-0.6-.61-0.81-1-0.67-1.25a1.08,1.08,0,0,1,1.11-.15l0.15,0a3.83,3.83,0,0,0,2.64-1L47.25,73A15.78,15.78,0,0,0,49.5,70.4l-0.66.15a36.2,36.2,0,0,1-7.29,1.1,6.75,6.75,0,0,1-2.88-1.2l-0.07-.05L38.7,70,38.85,70a0.72,0.72,0,0,0,.59,0l0.41-.09a25.22,25.22,0,0,0,6.94-4.13l0.12-.13A3.38,3.38,0,0,1,47.4,65a3,3,0,0,0,.49-0.72A24.26,24.26,0,0,1,36.55,66a73.92,73.92,0,0,0-10.92-1.27A7.69,7.69,0,0,0,22.77,66l-0.35.2-0.23.19a1.17,1.17,0,0,1-.82.42,1.1,1.1,0,0,0-.56.46,1.62,1.62,0,0,0,1.42-.15l0.49-.18,0.67-.45a2.33,2.33,0,0,1,1.18-.61h0l0,0a1.19,1.19,0,0,0,.47.05,0.66,0.66,0,0,1,.83.44l0,0.24-0.22-.1c-0.92-.43-1.24.1-1.65,0.77a2.3,2.3,0,0,1-1.19,1.18l-0.2.06a1.36,1.36,0,0,1-1.29-.07l-0.36-.22a1,1,0,0,1-.58-0.48A0.84,0.84,0,0,1,20.41,67l0.12-.14,0.08,0.13,0.17-.17a1.62,1.62,0,0,0,.46-0.55c2.8-3.65,7.61-3.14,11.91-2.37a27.9,27.9,0,0,0,6.26.44M17.89,59.36L18,59.59a1.4,1.4,0,0,0,.78.52,0.74,0.74,0,0,1,.45.29l0,0.11,0,0.05a1,1,0,0,1-1.26.25,2.69,2.69,0,0,1-1.35-2.52V58.11a2.93,2.93,0,0,1-.42-1.64c0-.2,0-0.38,0-0.53V55.8a2.69,2.69,0,0,1,.86-1.38l0.2-.05a0.21,0.21,0,0,1,.13.23l0,0.25a1.71,1.71,0,0,1-.13.41,3.49,3.49,0,0,0-.08.72,1.79,1.79,0,0,0,1,1.72c1.24,0.61,6.15-1.65,8.25-2.62l1-.45,0.83-.32,0.12,0.24S25.49,56.43,25,56.83,20.65,59,18.12,58.37L18,58.31c-0.2-.08-0.24-0.08-0.3,0a1.42,1.42,0,0,0,.24,1M17.71,92a5.52,5.52,0,0,1-1-.42h0l0,0a3.79,3.79,0,0,0-.91-0.8,2.81,2.81,0,0,1-1.2-1.3A2.58,2.58,0,0,1,14.14,88a6,6,0,0,1,.4-1.84A6.58,6.58,0,0,0,15,84.14V82.25a14.39,14.39,0,0,1,.59-4.95,3.36,3.36,0,0,1,2.9-2,6.64,6.64,0,0,1,1.62.83,5.46,5.46,0,0,0,1.8.85L22,77l0.17,0.28h0a2.46,2.46,0,0,1,1.53-.44h0.15l0,0c-0.6-.62-1.37-1.3-2.12-2a15,15,0,0,1-2.09-2c-0.1-.14-0.81-0.93-1.24-1.41l-0.22-.24a15.79,15.79,0,0,1-3.27-7.9l0.22-.05A0.56,0.56,0,0,1,14.8,63a1.39,1.39,0,0,1-.15-0.63,2.19,2.19,0,0,1,.47-1.25,1.45,1.45,0,0,1,1.6-.69,0.61,0.61,0,0,1,.26.8,0.78,0.78,0,0,1-.77.47,1.4,1.4,0,0,0-.83.86c0,0.11.07,0.18,0.36,0.21a6.66,6.66,0,0,0,2.14-.69c1.62-.67,3.63-1.51,5.28-1.3L23.72,61,24,61.11l0,0.26H23.8a6.77,6.77,0,0,0-2.39.3A13.21,13.21,0,0,1,18,63.29a6.54,6.54,0,0,1-2.85,0,16.28,16.28,0,0,0,6,8.78A50,50,0,0,1,26,75.35c1,0.75,2.06,1.52,3.12,2.22A39.6,39.6,0,0,1,34,81.06a35,35,0,0,0,5.52,3.81L39.89,85l-0.36.08A2.88,2.88,0,0,1,38.08,85l0,0.1L37.77,85l-1.67.78a1.07,1.07,0,0,0-.2.67,1.9,1.9,0,0,0,0,.32,3.44,3.44,0,0,0,1.86,2.15L38,89l-0.16.15,0,0-0.19.28H37.54a2.8,2.8,0,0,1-1.82-1.24l-0.31-.35a2.07,2.07,0,0,1-.35-1.24c0-.23,0-0.47,0-0.71l0-.42a1.5,1.5,0,0,1,.79-1.13l-0.12-.08A1.09,1.09,0,0,0,35.29,84a1.77,1.77,0,0,0-1.56,1l-0.23.34V84.79A2.59,2.59,0,0,1,34.21,83a16.46,16.46,0,0,0-5.76-3.91c-1.29-.1-2.5-0.11-3.27.93a1.7,1.7,0,0,0-.44.61,1.29,1.29,0,0,1-.36.49l-0.08.06-0.48-.35V80.69a1.05,1.05,0,0,1,.27-0.63l0.23-.41a4.57,4.57,0,0,1,3-1.59h0l-0.18-.25-0.88-.44-1.11-.59a0.83,0.83,0,0,0-.58,0,1.19,1.19,0,0,1-.67.06l-0.33.39H23.53a1.29,1.29,0,0,0-1,.72l-0.34.43c-2,2-1.57,5-1.05,7.68a5.42,5.42,0,0,1,.23,2.05,3.79,3.79,0,0,1-.59,1.3l-0.11.18a3.06,3.06,0,0,1-1,1,1.72,1.72,0,0,0-.66.76,1.13,1.13,0,0,0-.15.74,1.16,1.16,0,0,1-.18.8l-0.1.12L18.54,93a0.51,0.51,0,0,1-.13-0.37l0-.21V92.33L17.71,92m48.48,1c-0.33,1.24-1.44,1.25-2.41,1.26a4.87,4.87,0,0,0-1.09.09A20.52,20.52,0,0,1,58,93.89a9.7,9.7,0,0,0-3.91-.46,13.59,13.59,0,0,1-3.32-.23l-0.11.13a0.59,0.59,0,0,1-.26.22,2.53,2.53,0,0,1-1.62.94,4.08,4.08,0,0,0-1.22.49,11.23,11.23,0,0,1-4.55.34l-1-.06c-2.63-.37-5.44-1-8.33-1.59a7.86,7.86,0,0,1-1.94,0,8.26,8.26,0,0,0-1.66,0c-2.14.13-4.28,0.49-6.38,0.83a7.84,7.84,0,0,1-4.81-.72l-0.37-.23,0.43,0c3.64-.16,6.61-0.42,9.31-0.79-1.3-.12-2.72-0.2-3.8-0.25l0-.27c3.71-.84,7.6-0.2,11.35.42a53.57,53.57,0,0,0,6.68.82l0.78,0a28.35,28.35,0,0,0,6.07-.69,9.85,9.85,0,0,1,.27-1.24,6.77,6.77,0,0,0,.31-1.68,2.23,2.23,0,0,0,0-.38,19,19,0,0,0-1.55-5.74c-0.37-1-.74-1.94-1-2.92l0-.11,0.32-.15,0.06,0.1c1.52,2.36,3.17,5.11,3.6,7.89a1.15,1.15,0,0,1,.61,0c1,0.35,1.8-.33,2.57-1a6.34,6.34,0,0,1,1-.77,2.51,2.51,0,0,1,2-.05l0.17-.19,0.1-.11v0a4,4,0,0,0-.65-1.13,2.94,2.94,0,0,1-.72-1.54,10.75,10.75,0,0,1-.58-3.63l-0.08-1.32,0.26,0,0.36,1.68,0.37,1.69L57,81.67c0.5-1.39.91-2.84,1.31-4.25A50.75,50.75,0,0,1,60,72.16l0.68-2.93,1-2.07,1-2,0.53-1.39a6.51,6.51,0,0,0,.7-2.62v0a3.34,3.34,0,0,1-.16-1.2V59.56a1.65,1.65,0,0,0,0-.52l-0.05-.21a0.19,0.19,0,0,1,.11-0.19,0.34,0.34,0,0,1,.4.2l0.07,0.39h0a1.72,1.72,0,0,1,.25,1,10.08,10.08,0,0,1-.08,1l-0.06.7A89.28,89.28,0,0,1,59.7,76.51l-0.43,1.61a11.24,11.24,0,0,1-.66,2.19l-0.92,3,0,0a0.71,0.71,0,0,1-.43.3,9.42,9.42,0,0,0,2.44,3.63l0,0v0l0,0.13a0.41,0.41,0,0,1-.1.28l-0.12.05L59.44,88l0,0.11a1.06,1.06,0,0,0,.61.55,3.84,3.84,0,0,1,.9.64l0.38,0.32a7.81,7.81,0,0,0,1.87,1.07L64,90.93a6.41,6.41,0,0,1,1.52.55l0.18,0.1-0.16.12a2.53,2.53,0,0,1-2.08.19l-0.91-.13,0,0A13.61,13.61,0,0,1,61,90.47a8.91,8.91,0,0,0-2.33-1.75,2.44,2.44,0,0,1-.65-0.63,2,2,0,0,0-.51-0.48l0,0.2-0.18,0a3,3,0,0,0-1.85.73,4.11,4.11,0,0,1-1.53.75,3.66,3.66,0,0,1-2.7-.19,12.16,12.16,0,0,1,.09,1.25,3.91,3.91,0,0,1-.18,1.25,1.44,1.44,0,0,1-.23.67,0.7,0.7,0,0,0,.82,0l0.56-.14c1.92-.59,4.21.1,5.76,0.68a11.38,11.38,0,0,0,4.09.58l1.66,0.06,0.47-.1a1.61,1.61,0,0,0,.51-0.1,2.83,2.83,0,0,0,.8-1.16,0.19,0.19,0,0,1,.13-0.16,0.43,0.43,0,0,1,.37.17l0,0,0,0v0a1.2,1.2,0,0,1,0,.85m2.45-67.76,0,0.34v0.16H68.48a2.85,2.85,0,0,1-1.18-.39l-0.13-.08,0.1-.12a0.55,0.55,0,0,0,.13-0.4,0.52,0.52,0,0,0-.21-0.37,1.38,1.38,0,0,0-.94-0.12l0.08,0.13a1.13,1.13,0,0,0,.46.52l0,0,0,0a1.77,1.77,0,0,1,.33.85l-0.09.26a0.82,0.82,0,0,1,.41.35l0,0.06v0.06a1.5,1.5,0,0,1-.58,1.18,0.22,0.22,0,0,1,.22.15l0,0.05,0,0-1.1,2.38c-0.71,1-.93,1.29-1,1.39h0a3.15,3.15,0,0,1-.76.75l-0.08.06-1.35,2.53-0.86,2c-1.13,2.72-2.31,5.54-4.4,7.79a2.52,2.52,0,0,0-.57.71,1.93,1.93,0,0,1-1.08,1l0.12,0-0.5.1A1.1,1.1,0,0,0,55,47l0.09,0.18-0.58-.09a5.15,5.15,0,0,1-2.19-.65A3.73,3.73,0,0,1,51,45.73l-0.78-.48a18,18,0,0,0-1.91-1,13.23,13.23,0,0,1-3.9-2.43l0.07,0.82,0.11,1.65h0a2.93,2.93,0,0,1,.22,1.13A5.47,5.47,0,0,1,43.91,48l-0.23.22a11.13,11.13,0,0,0-3.21,4.25l-0.34.5c-0.9,1.32-1.9,2.78-1.9,4.31a3.27,3.27,0,0,0,.1.83V58.2a2.12,2.12,0,0,1,.09.5,0.78,0.78,0,0,1-.28.56v0.09a9.64,9.64,0,0,1-.09,1.06l0,0.16a2.78,2.78,0,0,1-1.8,1.94,3.13,3.13,0,0,0-1.51,1.26L34.64,64l-0.33-.55V63.36a3.35,3.35,0,0,1,1.4-2.74l0.19-.11a2.21,2.21,0,0,0,1.3-1.38,16.68,16.68,0,0,0,.1-1.95c0-.57,0-1.12,0-1.67V55.18l0.33-.81,0.19-.54A33.08,33.08,0,0,1,41,49a7.17,7.17,0,0,1,1.37-1.46A4.45,4.45,0,0,0,44,45.35l-0.2-.9a11.33,11.33,0,0,1-.31-1.55v0c0-.14,0-0.42,0-0.76,0-.51,0-1.13-0.07-1.61a23.79,23.79,0,0,1-.42-2.57,16.17,16.17,0,0,0-.73-3.57l-0.28-1a4.94,4.94,0,0,0-.28-1l-0.05-.12,0.12-.06,0.08,0h0l-0.13-.33-0.41-1.2a80.78,80.78,0,0,1,.46,8.81q0,1.95-.08,4l-0.17.76c-0.23,1.13-.48,2.4-1.7,2.89l-0.76.85A29.09,29.09,0,0,1,35,52,8.94,8.94,0,0,1,34,53a3.93,3.93,0,0,0-1.71,2.47,2.53,2.53,0,0,0,0,.35,0.33,0.33,0,0,0,0,.16,1.07,1.07,0,0,0,.33-0.19,0.93,0.93,0,0,1,1.29.23c0.15,0.2.11,0.34,0,.41a0.46,0.46,0,0,1-.51-0.08l-0.14-.07a0.86,0.86,0,0,0-.8.53,0.94,0.94,0,0,1-.83.37,1.1,1.1,0,0,1-1-.75,1.6,1.6,0,0,1,.08-1.47,26.31,26.31,0,0,1,5.4-5.16l1.38-1.1a6.87,6.87,0,0,1,1-.95,6.45,6.45,0,0,0,1-1,13.29,13.29,0,0,0,1.1-4.94l0.12-1.25a14.16,14.16,0,0,0,.33-2.65V37.74A44.39,44.39,0,0,0,41,33.28a11.08,11.08,0,0,0,0-1.86,5.13,5.13,0,0,1,0-1.71l0.16-.31,0.08,0.34L41.29,30l0.25,0h0.11l0.09-.11,1.16,0.82a10,10,0,0,0,1.14.81,4.6,4.6,0,0,0,1.19,1,4.62,4.62,0,0,1,1.41,1.2,44.4,44.4,0,0,0,5.79,4.69l0.5,0.43a1.54,1.54,0,0,0,.57.4,28.68,28.68,0,0,0,6-7.7,1,1,0,0,0,.09-0.4,1.76,1.76,0,0,0-.5-1,2.88,2.88,0,0,1-.51-0.86l-0.81-1.06a7.93,7.93,0,0,0-2.08-2.22l-0.13-.08,0.1-.12a0.3,0.3,0,0,1,.37,0l0.31,0.22a1.1,1.1,0,0,1,.91.38,32,32,0,0,0,2.4,3.29,10.73,10.73,0,0,1,.74,1c0.3,0.59-.5,2.31-0.86,3a18.4,18.4,0,0,1-2.68,3.2,18.07,18.07,0,0,0-2.62,3.12l-0.55.65c0,0.06-.14.24-0.85-0.15l-1.2-1.1c-1.34-1.23-3-2.76-4.11-3.68a14.66,14.66,0,0,1-2.68-2,17.16,17.16,0,0,0-2.16-1.69c0.53,2.21,1,4.27,1.36,6.26a2.9,2.9,0,0,1,.11.93v0.18a1.45,1.45,0,0,0,.54,1.4,41.22,41.22,0,0,0,10.88,5.77l0.08,0,0-.06a12.66,12.66,0,0,1,1.57-2.58,16.28,16.28,0,0,0,1.31-2c1.44-1.7,2.47-4.41,3.3-6.58a16.1,16.1,0,0,1,1.33-3L63,32.12,62.88,32l-0.19-.14,0.21-.07,0.39-.12a1.57,1.57,0,0,0,1.21-.83L65,30.22a5.26,5.26,0,0,0,.6-1,4.16,4.16,0,0,1,.92-1.33L66.15,28a6.51,6.51,0,0,1-1.61.41l-0.09-.24,0.62-.28a2.08,2.08,0,0,0,.61-0.28l0.4-.37a1,1,0,0,0,.42-0.49h0l-0.16-.22-2.12,1.71-0.06-.07-0.35.11L64,28a2.72,2.72,0,0,1,.62-0.64l0.07-.07-0.41.09-1.55.37a8.75,8.75,0,0,0-1.2.09l0.2,0.2,0-.06a0.41,0.41,0,0,1,.18.5,0.61,0.61,0,0,1-.6.35,0.47,0.47,0,0,1-.39-0.36,6.91,6.91,0,0,1-2.07-1.31,5,5,0,0,0-2.27-1.29l-0.26,0,0.19-.19a1.06,1.06,0,0,1,.91-0.16,7.72,7.72,0,0,1-.57-0.62A2.33,2.33,0,0,0,55,23.7a0.53,0.53,0,0,1-.43-0.36h0A0.57,0.57,0,0,1,55.19,23c2.06-.07,3.65-0.21,5.27-1.38l0.17-.22A0.82,0.82,0,0,1,61,21.07L60.89,21A2.58,2.58,0,0,1,60,19.44V19.23A4,4,0,0,1,60.85,17a6.18,6.18,0,0,0,.54-2.47l0.27,0,0,0.16,0.18,1a3.61,3.61,0,0,0,.42,1.08,2.83,2.83,0,0,1,.39,1.07,3.79,3.79,0,0,1,.12.93,3.09,3.09,0,0,1-.69,2l-0.23.18c-0.1,0-.12.06-0.12,0.09h0a3.61,3.61,0,0,0,1.93,1.85l0.4-.43a3.15,3.15,0,0,1,.71-0.7,0.33,0.33,0,0,1,.28.06,1.15,1.15,0,0,1,.47,1,1.39,1.39,0,0,0,.15.62H66a2.35,2.35,0,0,1,2,0,1.4,1.4,0,0,1,.64,1.47v0.31Zm-1.8-4.57h-1l0.21-.73h0.09a12.53,12.53,0,0,1,3.5.27v0.26a9.34,9.34,0,0,1-2.8.22"/><path class="cls-1" d="M65.94,25.35l-0.56.32L63,27a7.4,7.4,0,0,0,2.66-1l0.6-.31,0.07-.17v0l-0.16-.12a0.22,0.22,0,0,0-.24,0"/><path class="cls-1" d="M62.47,26.37h0l0,0a0.25,0.25,0,0,1,0-.49l0.66-.27a3.28,3.28,0,0,1,1.77-.41l0.33-.23-0.1-.21A0.57,0.57,0,0,0,65,24.47H64.87l-1,.42a7.58,7.58,0,0,1-2.1.73l-0.41.06,0.3-.29A5.78,5.78,0,0,1,63,24.52a16.17,16.17,0,0,1-3.77-.25c-0.74-.11-1.5-0.22-2.25-0.27l0.57,0.57A1.67,1.67,0,0,1,58,25l0,0.1C58.72,26,60.2,27.44,62,27h0.08L63,26.33a2.74,2.74,0,0,1-.56,0"/></svg>